<mxfile host="app.diagrams.net" modified="2022-10-16T14:37:37.740Z" agent="5.0 (Windows NT 10.0; WOW64) AppleWebKit/537.36 (KHTML, like Gecko) Chrome/72.0.3626.121 Safari/537.36" etag="28WhANnDvaMmCDrFZXNX" version="20.4.0" type="github" pages="3">
  <diagram id="8-V0pNnIsjqdrwvu2Nf6" name="第 1 页">
    <mxGraphModel dx="1422" dy="713" grid="1" gridSize="10" guides="1" tooltips="1" connect="1" arrows="1" fold="1" page="1" pageScale="1" pageWidth="827" pageHeight="1169" math="0" shadow="0">
      <root>
        <mxCell id="0" />
        <mxCell id="1" parent="0" />
        <mxCell id="WbbULaMiNVrda6XYHbfZ-3" value="" style="edgeStyle=orthogonalEdgeStyle;rounded=0;orthogonalLoop=1;jettySize=auto;html=1;" edge="1" parent="1" source="WbbULaMiNVrda6XYHbfZ-1" target="WbbULaMiNVrda6XYHbfZ-2">
          <mxGeometry relative="1" as="geometry" />
        </mxCell>
        <mxCell id="WbbULaMiNVrda6XYHbfZ-1" value="引脚置高" style="rounded=0;whiteSpace=wrap;html=1;" vertex="1" parent="1">
          <mxGeometry x="270" y="330" width="100" height="30" as="geometry" />
        </mxCell>
        <mxCell id="WbbULaMiNVrda6XYHbfZ-5" value="" style="edgeStyle=orthogonalEdgeStyle;rounded=0;orthogonalLoop=1;jettySize=auto;html=1;" edge="1" parent="1" source="WbbULaMiNVrda6XYHbfZ-2" target="WbbULaMiNVrda6XYHbfZ-4">
          <mxGeometry relative="1" as="geometry" />
        </mxCell>
        <mxCell id="WbbULaMiNVrda6XYHbfZ-2" value="延迟20ms" style="rounded=0;whiteSpace=wrap;html=1;" vertex="1" parent="1">
          <mxGeometry x="270" y="380" width="100" height="30" as="geometry" />
        </mxCell>
        <mxCell id="WbbULaMiNVrda6XYHbfZ-7" value="" style="edgeStyle=orthogonalEdgeStyle;rounded=0;orthogonalLoop=1;jettySize=auto;html=1;" edge="1" parent="1" source="WbbULaMiNVrda6XYHbfZ-4" target="WbbULaMiNVrda6XYHbfZ-6">
          <mxGeometry relative="1" as="geometry" />
        </mxCell>
        <mxCell id="WbbULaMiNVrda6XYHbfZ-4" value="发送数据" style="rounded=0;whiteSpace=wrap;html=1;" vertex="1" parent="1">
          <mxGeometry x="270" y="430" width="100" height="30" as="geometry" />
        </mxCell>
        <mxCell id="WbbULaMiNVrda6XYHbfZ-9" value="" style="edgeStyle=orthogonalEdgeStyle;rounded=0;orthogonalLoop=1;jettySize=auto;html=1;" edge="1" parent="1" source="WbbULaMiNVrda6XYHbfZ-6" target="WbbULaMiNVrda6XYHbfZ-8">
          <mxGeometry relative="1" as="geometry" />
        </mxCell>
        <mxCell id="WbbULaMiNVrda6XYHbfZ-6" value="延迟20ms" style="rounded=0;whiteSpace=wrap;html=1;" vertex="1" parent="1">
          <mxGeometry x="270" y="480" width="100" height="30" as="geometry" />
        </mxCell>
        <mxCell id="WbbULaMiNVrda6XYHbfZ-11" value="" style="edgeStyle=orthogonalEdgeStyle;rounded=0;orthogonalLoop=1;jettySize=auto;html=1;" edge="1" parent="1" source="WbbULaMiNVrda6XYHbfZ-8" target="WbbULaMiNVrda6XYHbfZ-10">
          <mxGeometry relative="1" as="geometry" />
        </mxCell>
        <mxCell id="WbbULaMiNVrda6XYHbfZ-8" value="读取数据" style="rounded=0;whiteSpace=wrap;html=1;" vertex="1" parent="1">
          <mxGeometry x="270" y="530" width="100" height="30" as="geometry" />
        </mxCell>
        <mxCell id="WbbULaMiNVrda6XYHbfZ-15" value="" style="edgeStyle=orthogonalEdgeStyle;rounded=0;orthogonalLoop=1;jettySize=auto;html=1;" edge="1" parent="1" source="WbbULaMiNVrda6XYHbfZ-10" target="WbbULaMiNVrda6XYHbfZ-14">
          <mxGeometry relative="1" as="geometry" />
        </mxCell>
        <mxCell id="WbbULaMiNVrda6XYHbfZ-10" value="引脚置低" style="rounded=0;whiteSpace=wrap;html=1;" vertex="1" parent="1">
          <mxGeometry x="270" y="580" width="100" height="30" as="geometry" />
        </mxCell>
        <mxCell id="WbbULaMiNVrda6XYHbfZ-17" value="" style="edgeStyle=orthogonalEdgeStyle;rounded=0;orthogonalLoop=1;jettySize=auto;html=1;" edge="1" parent="1" source="WbbULaMiNVrda6XYHbfZ-14" target="WbbULaMiNVrda6XYHbfZ-16">
          <mxGeometry relative="1" as="geometry" />
        </mxCell>
        <mxCell id="WbbULaMiNVrda6XYHbfZ-14" value="延迟40ms" style="rounded=0;whiteSpace=wrap;html=1;" vertex="1" parent="1">
          <mxGeometry x="270" y="630" width="100" height="30" as="geometry" />
        </mxCell>
        <mxCell id="WbbULaMiNVrda6XYHbfZ-20" value="Y" style="edgeStyle=orthogonalEdgeStyle;rounded=0;orthogonalLoop=1;jettySize=auto;html=1;" edge="1" parent="1" source="WbbULaMiNVrda6XYHbfZ-16" target="WbbULaMiNVrda6XYHbfZ-19">
          <mxGeometry relative="1" as="geometry" />
        </mxCell>
        <mxCell id="WbbULaMiNVrda6XYHbfZ-24" value="" style="edgeStyle=orthogonalEdgeStyle;rounded=0;orthogonalLoop=1;jettySize=auto;html=1;" edge="1" parent="1" source="WbbULaMiNVrda6XYHbfZ-16" target="WbbULaMiNVrda6XYHbfZ-23">
          <mxGeometry relative="1" as="geometry" />
        </mxCell>
        <mxCell id="WbbULaMiNVrda6XYHbfZ-16" value="数据校验通过?" style="rhombus;whiteSpace=wrap;html=1;rounded=0;" vertex="1" parent="1">
          <mxGeometry x="250" y="690" width="140" height="50" as="geometry" />
        </mxCell>
        <mxCell id="WbbULaMiNVrda6XYHbfZ-19" value="返回数据" style="whiteSpace=wrap;html=1;rounded=0;" vertex="1" parent="1">
          <mxGeometry x="270" y="800" width="100" height="40" as="geometry" />
        </mxCell>
        <mxCell id="WbbULaMiNVrda6XYHbfZ-25" value="N" style="edgeStyle=orthogonalEdgeStyle;rounded=0;orthogonalLoop=1;jettySize=auto;html=1;exitX=0.5;exitY=0;exitDx=0;exitDy=0;entryX=1;entryY=0.5;entryDx=0;entryDy=0;" edge="1" parent="1" source="WbbULaMiNVrda6XYHbfZ-23" target="WbbULaMiNVrda6XYHbfZ-1">
          <mxGeometry relative="1" as="geometry">
            <Array as="points">
              <mxPoint x="480" y="345" />
            </Array>
          </mxGeometry>
        </mxCell>
        <mxCell id="WbbULaMiNVrda6XYHbfZ-27" value="Y" style="edgeStyle=orthogonalEdgeStyle;rounded=0;orthogonalLoop=1;jettySize=auto;html=1;" edge="1" parent="1" source="WbbULaMiNVrda6XYHbfZ-23" target="WbbULaMiNVrda6XYHbfZ-26">
          <mxGeometry relative="1" as="geometry" />
        </mxCell>
        <mxCell id="WbbULaMiNVrda6XYHbfZ-23" value="读取次数足够(5次或者10次)?" style="rhombus;whiteSpace=wrap;html=1;rounded=0;" vertex="1" parent="1">
          <mxGeometry x="410" y="690" width="140" height="50" as="geometry" />
        </mxCell>
        <mxCell id="WbbULaMiNVrda6XYHbfZ-26" value="返回空数据" style="whiteSpace=wrap;html=1;rounded=0;" vertex="1" parent="1">
          <mxGeometry x="430" y="800" width="100" height="40" as="geometry" />
        </mxCell>
        <mxCell id="WbbULaMiNVrda6XYHbfZ-28" value="读取寄存器（函数）" style="text;html=1;strokeColor=none;fillColor=none;align=center;verticalAlign=middle;whiteSpace=wrap;rounded=0;" vertex="1" parent="1">
          <mxGeometry x="300" y="190" width="130" height="30" as="geometry" />
        </mxCell>
        <mxCell id="WbbULaMiNVrda6XYHbfZ-32" style="edgeStyle=orthogonalEdgeStyle;rounded=0;orthogonalLoop=1;jettySize=auto;html=1;exitX=0.5;exitY=1;exitDx=0;exitDy=0;entryX=0.5;entryY=0;entryDx=0;entryDy=0;" edge="1" parent="1" source="WbbULaMiNVrda6XYHbfZ-31" target="WbbULaMiNVrda6XYHbfZ-1">
          <mxGeometry relative="1" as="geometry" />
        </mxCell>
        <mxCell id="WbbULaMiNVrda6XYHbfZ-31" value="开始" style="rounded=0;whiteSpace=wrap;html=1;" vertex="1" parent="1">
          <mxGeometry x="270" y="270" width="100" height="30" as="geometry" />
        </mxCell>
      </root>
    </mxGraphModel>
  </diagram>
  <diagram id="MKNgKRqOcBcHivfJfC7i" name="第 2 页">
    <mxGraphModel dx="1422" dy="713" grid="1" gridSize="10" guides="1" tooltips="1" connect="1" arrows="1" fold="1" page="1" pageScale="1" pageWidth="827" pageHeight="1169" math="0" shadow="0">
      <root>
        <mxCell id="0" />
        <mxCell id="1" parent="0" />
        <mxCell id="F86OO1-kUBH97bRYNRT6-4" value="N" style="edgeStyle=orthogonalEdgeStyle;rounded=0;orthogonalLoop=1;jettySize=auto;html=1;" edge="1" parent="1" source="F86OO1-kUBH97bRYNRT6-2" target="F86OO1-kUBH97bRYNRT6-3">
          <mxGeometry relative="1" as="geometry" />
        </mxCell>
        <mxCell id="F86OO1-kUBH97bRYNRT6-7" value="Y" style="edgeStyle=orthogonalEdgeStyle;rounded=0;orthogonalLoop=1;jettySize=auto;html=1;" edge="1" parent="1" source="F86OO1-kUBH97bRYNRT6-2" target="F86OO1-kUBH97bRYNRT6-6">
          <mxGeometry relative="1" as="geometry" />
        </mxCell>
        <mxCell id="F86OO1-kUBH97bRYNRT6-2" value="端口是否在充电中?" style="rhombus;whiteSpace=wrap;html=1;" vertex="1" parent="1">
          <mxGeometry x="397.5" y="140" width="110" height="60" as="geometry" />
        </mxCell>
        <mxCell id="F86OO1-kUBH97bRYNRT6-5" style="edgeStyle=orthogonalEdgeStyle;rounded=0;orthogonalLoop=1;jettySize=auto;html=1;exitX=0.5;exitY=0;exitDx=0;exitDy=0;entryX=0.5;entryY=0;entryDx=0;entryDy=0;" edge="1" parent="1" source="F86OO1-kUBH97bRYNRT6-3" target="F86OO1-kUBH97bRYNRT6-2">
          <mxGeometry relative="1" as="geometry" />
        </mxCell>
        <mxCell id="F86OO1-kUBH97bRYNRT6-3" value="延时80ms，下一个端口" style="whiteSpace=wrap;html=1;" vertex="1" parent="1">
          <mxGeometry x="537.5" y="150" width="110" height="40" as="geometry" />
        </mxCell>
        <mxCell id="F86OO1-kUBH97bRYNRT6-9" value="" style="edgeStyle=orthogonalEdgeStyle;rounded=0;orthogonalLoop=1;jettySize=auto;html=1;" edge="1" parent="1" source="F86OO1-kUBH97bRYNRT6-6" target="F86OO1-kUBH97bRYNRT6-8">
          <mxGeometry relative="1" as="geometry" />
        </mxCell>
        <mxCell id="F86OO1-kUBH97bRYNRT6-6" value="执行获取功率函数" style="whiteSpace=wrap;html=1;" vertex="1" parent="1">
          <mxGeometry x="390" y="240" width="125" height="40" as="geometry" />
        </mxCell>
        <mxCell id="F86OO1-kUBH97bRYNRT6-37" style="edgeStyle=orthogonalEdgeStyle;rounded=0;orthogonalLoop=1;jettySize=auto;html=1;exitX=0.5;exitY=1;exitDx=0;exitDy=0;entryX=0.5;entryY=0;entryDx=0;entryDy=0;" edge="1" parent="1" source="F86OO1-kUBH97bRYNRT6-8" target="F86OO1-kUBH97bRYNRT6-36">
          <mxGeometry relative="1" as="geometry" />
        </mxCell>
        <mxCell id="F86OO1-kUBH97bRYNRT6-46" style="edgeStyle=orthogonalEdgeStyle;rounded=0;orthogonalLoop=1;jettySize=auto;html=1;exitX=1;exitY=0.5;exitDx=0;exitDy=0;entryX=0;entryY=0.5;entryDx=0;entryDy=0;" edge="1" parent="1" source="F86OO1-kUBH97bRYNRT6-8" target="F86OO1-kUBH97bRYNRT6-45">
          <mxGeometry relative="1" as="geometry" />
        </mxCell>
        <mxCell id="F86OO1-kUBH97bRYNRT6-8" value="读取的功率为空?" style="rhombus;whiteSpace=wrap;html=1;" vertex="1" parent="1">
          <mxGeometry x="411.25" y="310" width="80" height="80" as="geometry" />
        </mxCell>
        <mxCell id="F86OO1-kUBH97bRYNRT6-13" value="" style="edgeStyle=orthogonalEdgeStyle;rounded=0;orthogonalLoop=1;jettySize=auto;html=1;" edge="1" parent="1" source="F86OO1-kUBH97bRYNRT6-10" target="F86OO1-kUBH97bRYNRT6-12">
          <mxGeometry relative="1" as="geometry" />
        </mxCell>
        <mxCell id="F86OO1-kUBH97bRYNRT6-10" value="获取订单最大功率" style="whiteSpace=wrap;html=1;" vertex="1" parent="1">
          <mxGeometry x="395" y="480" width="115" height="30" as="geometry" />
        </mxCell>
        <mxCell id="F86OO1-kUBH97bRYNRT6-15" value="" style="edgeStyle=orthogonalEdgeStyle;rounded=0;orthogonalLoop=1;jettySize=auto;html=1;" edge="1" parent="1" source="F86OO1-kUBH97bRYNRT6-12" target="F86OO1-kUBH97bRYNRT6-14">
          <mxGeometry relative="1" as="geometry" />
        </mxCell>
        <mxCell id="F86OO1-kUBH97bRYNRT6-16" value="Y" style="edgeLabel;html=1;align=center;verticalAlign=middle;resizable=0;points=[];" vertex="1" connectable="0" parent="F86OO1-kUBH97bRYNRT6-15">
          <mxGeometry x="-0.2889" y="1" relative="1" as="geometry">
            <mxPoint as="offset" />
          </mxGeometry>
        </mxCell>
        <mxCell id="F86OO1-kUBH97bRYNRT6-19" value="N" style="edgeStyle=orthogonalEdgeStyle;rounded=0;orthogonalLoop=1;jettySize=auto;html=1;exitX=1;exitY=0.5;exitDx=0;exitDy=0;entryX=1;entryY=0.5;entryDx=0;entryDy=0;" edge="1" parent="1" source="F86OO1-kUBH97bRYNRT6-12" target="F86OO1-kUBH97bRYNRT6-17">
          <mxGeometry relative="1" as="geometry" />
        </mxCell>
        <mxCell id="F86OO1-kUBH97bRYNRT6-12" value="读取功率值&amp;gt;最大功率值?" style="rhombus;whiteSpace=wrap;html=1;" vertex="1" parent="1">
          <mxGeometry x="412.5" y="530" width="80" height="80" as="geometry" />
        </mxCell>
        <mxCell id="F86OO1-kUBH97bRYNRT6-18" value="" style="edgeStyle=orthogonalEdgeStyle;rounded=0;orthogonalLoop=1;jettySize=auto;html=1;" edge="1" parent="1" source="F86OO1-kUBH97bRYNRT6-14" target="F86OO1-kUBH97bRYNRT6-17">
          <mxGeometry relative="1" as="geometry" />
        </mxCell>
        <mxCell id="F86OO1-kUBH97bRYNRT6-14" value="设置最大功率值" style="whiteSpace=wrap;html=1;" vertex="1" parent="1">
          <mxGeometry x="392.5" y="640" width="117.5" height="30" as="geometry" />
        </mxCell>
        <mxCell id="F86OO1-kUBH97bRYNRT6-24" value="" style="edgeStyle=orthogonalEdgeStyle;rounded=0;orthogonalLoop=1;jettySize=auto;html=1;" edge="1" parent="1" source="F86OO1-kUBH97bRYNRT6-17" target="F86OO1-kUBH97bRYNRT6-23">
          <mxGeometry relative="1" as="geometry" />
        </mxCell>
        <mxCell id="F86OO1-kUBH97bRYNRT6-17" value="对功率值进行处理" style="whiteSpace=wrap;html=1;" vertex="1" parent="1">
          <mxGeometry x="391.25" y="690" width="125" height="40" as="geometry" />
        </mxCell>
        <mxCell id="F86OO1-kUBH97bRYNRT6-22" style="edgeStyle=orthogonalEdgeStyle;rounded=0;orthogonalLoop=1;jettySize=auto;html=1;exitX=0.5;exitY=0;exitDx=0;exitDy=0;entryX=0.5;entryY=0;entryDx=0;entryDy=0;" edge="1" parent="1" source="F86OO1-kUBH97bRYNRT6-20" target="F86OO1-kUBH97bRYNRT6-2">
          <mxGeometry relative="1" as="geometry" />
        </mxCell>
        <mxCell id="F86OO1-kUBH97bRYNRT6-20" value="下一个端口" style="whiteSpace=wrap;html=1;" vertex="1" parent="1">
          <mxGeometry x="210" y="350" width="125" height="40" as="geometry" />
        </mxCell>
        <mxCell id="F86OO1-kUBH97bRYNRT6-26" value="Y" style="edgeStyle=orthogonalEdgeStyle;rounded=0;orthogonalLoop=1;jettySize=auto;html=1;" edge="1" parent="1" source="F86OO1-kUBH97bRYNRT6-23" target="F86OO1-kUBH97bRYNRT6-25">
          <mxGeometry relative="1" as="geometry" />
        </mxCell>
        <mxCell id="F86OO1-kUBH97bRYNRT6-30" value="N" style="edgeStyle=orthogonalEdgeStyle;rounded=0;orthogonalLoop=1;jettySize=auto;html=1;exitX=0;exitY=0.5;exitDx=0;exitDy=0;entryX=0.5;entryY=1;entryDx=0;entryDy=0;" edge="1" parent="1" source="F86OO1-kUBH97bRYNRT6-23" target="F86OO1-kUBH97bRYNRT6-20">
          <mxGeometry relative="1" as="geometry" />
        </mxCell>
        <mxCell id="F86OO1-kUBH97bRYNRT6-23" value="执行的是第十个端口?" style="rhombus;whiteSpace=wrap;html=1;" vertex="1" parent="1">
          <mxGeometry x="412.5" y="750" width="80" height="80" as="geometry" />
        </mxCell>
        <mxCell id="F86OO1-kUBH97bRYNRT6-29" value="N" style="edgeStyle=orthogonalEdgeStyle;rounded=0;orthogonalLoop=1;jettySize=auto;html=1;exitX=0;exitY=0.5;exitDx=0;exitDy=0;entryX=0.5;entryY=1;entryDx=0;entryDy=0;" edge="1" parent="1" source="F86OO1-kUBH97bRYNRT6-25" target="F86OO1-kUBH97bRYNRT6-20">
          <mxGeometry relative="1" as="geometry" />
        </mxCell>
        <mxCell id="F86OO1-kUBH97bRYNRT6-25" value="延时200ms" style="whiteSpace=wrap;html=1;" vertex="1" parent="1">
          <mxGeometry x="391.25" y="850" width="120" height="60" as="geometry" />
        </mxCell>
        <mxCell id="F86OO1-kUBH97bRYNRT6-31" value="读取功率线程" style="text;html=1;strokeColor=none;fillColor=none;align=center;verticalAlign=middle;whiteSpace=wrap;rounded=0;" vertex="1" parent="1">
          <mxGeometry x="511.87" y="40" width="60" height="30" as="geometry" />
        </mxCell>
        <mxCell id="F86OO1-kUBH97bRYNRT6-38" style="edgeStyle=orthogonalEdgeStyle;rounded=0;orthogonalLoop=1;jettySize=auto;html=1;exitX=0.5;exitY=1;exitDx=0;exitDy=0;entryX=0.5;entryY=0;entryDx=0;entryDy=0;" edge="1" parent="1" source="F86OO1-kUBH97bRYNRT6-36" target="F86OO1-kUBH97bRYNRT6-10">
          <mxGeometry relative="1" as="geometry" />
        </mxCell>
        <mxCell id="F86OO1-kUBH97bRYNRT6-36" value="读取次数清零" style="rounded=0;whiteSpace=wrap;html=1;" vertex="1" parent="1">
          <mxGeometry x="395.62" y="420" width="116.25" height="30" as="geometry" />
        </mxCell>
        <mxCell id="F86OO1-kUBH97bRYNRT6-42" value="Y" style="edgeStyle=orthogonalEdgeStyle;rounded=0;orthogonalLoop=1;jettySize=auto;html=1;" edge="1" parent="1" source="F86OO1-kUBH97bRYNRT6-39" target="F86OO1-kUBH97bRYNRT6-41">
          <mxGeometry relative="1" as="geometry" />
        </mxCell>
        <mxCell id="F86OO1-kUBH97bRYNRT6-50" value="N" style="edgeStyle=orthogonalEdgeStyle;rounded=0;orthogonalLoop=1;jettySize=auto;html=1;exitX=0.5;exitY=0;exitDx=0;exitDy=0;entryX=0.5;entryY=0;entryDx=0;entryDy=0;" edge="1" parent="1" source="F86OO1-kUBH97bRYNRT6-39" target="F86OO1-kUBH97bRYNRT6-2">
          <mxGeometry relative="1" as="geometry" />
        </mxCell>
        <mxCell id="F86OO1-kUBH97bRYNRT6-39" value="读取次数大于4次?" style="rhombus;whiteSpace=wrap;html=1;" vertex="1" parent="1">
          <mxGeometry x="660" y="310" width="80" height="80" as="geometry" />
        </mxCell>
        <mxCell id="F86OO1-kUBH97bRYNRT6-43" style="edgeStyle=orthogonalEdgeStyle;rounded=0;orthogonalLoop=1;jettySize=auto;html=1;exitX=0.5;exitY=0;exitDx=0;exitDy=0;entryX=0.5;entryY=0;entryDx=0;entryDy=0;" edge="1" parent="1" source="F86OO1-kUBH97bRYNRT6-41" target="F86OO1-kUBH97bRYNRT6-2">
          <mxGeometry relative="1" as="geometry" />
        </mxCell>
        <mxCell id="F86OO1-kUBH97bRYNRT6-41" value="读取次数清零，并对对应的功率模块重启" style="whiteSpace=wrap;html=1;" vertex="1" parent="1">
          <mxGeometry x="780" y="320" width="120" height="60" as="geometry" />
        </mxCell>
        <mxCell id="F86OO1-kUBH97bRYNRT6-47" style="edgeStyle=orthogonalEdgeStyle;rounded=0;orthogonalLoop=1;jettySize=auto;html=1;exitX=1;exitY=0.5;exitDx=0;exitDy=0;entryX=0;entryY=0.5;entryDx=0;entryDy=0;" edge="1" parent="1" source="F86OO1-kUBH97bRYNRT6-45" target="F86OO1-kUBH97bRYNRT6-39">
          <mxGeometry relative="1" as="geometry" />
        </mxCell>
        <mxCell id="F86OO1-kUBH97bRYNRT6-45" value="次数+1" style="whiteSpace=wrap;html=1;" vertex="1" parent="1">
          <mxGeometry x="516.25" y="330" width="110" height="40" as="geometry" />
        </mxCell>
      </root>
    </mxGraphModel>
  </diagram>
  <diagram id="KgAoJFmJ8FKOXo_EwztT" name="第 3 页">
    <mxGraphModel dx="1422" dy="713" grid="1" gridSize="10" guides="1" tooltips="1" connect="1" arrows="1" fold="1" page="1" pageScale="1" pageWidth="827" pageHeight="1169" math="0" shadow="0">
      <root>
        <mxCell id="0" />
        <mxCell id="1" parent="0" />
        <mxCell id="udMgwDhPtrYCHYkNvZCU-5" value="" style="edgeStyle=orthogonalEdgeStyle;rounded=0;orthogonalLoop=1;jettySize=auto;html=1;" edge="1" parent="1" source="udMgwDhPtrYCHYkNvZCU-3" target="udMgwDhPtrYCHYkNvZCU-4">
          <mxGeometry relative="1" as="geometry" />
        </mxCell>
        <mxCell id="udMgwDhPtrYCHYkNvZCU-3" value="初始化次数为10" style="rounded=0;whiteSpace=wrap;html=1;" vertex="1" parent="1">
          <mxGeometry x="190" y="110" width="120" height="50" as="geometry" />
        </mxCell>
        <mxCell id="udMgwDhPtrYCHYkNvZCU-7" value="Y" style="edgeStyle=orthogonalEdgeStyle;rounded=0;orthogonalLoop=1;jettySize=auto;html=1;" edge="1" parent="1" source="udMgwDhPtrYCHYkNvZCU-4" target="udMgwDhPtrYCHYkNvZCU-6">
          <mxGeometry relative="1" as="geometry" />
        </mxCell>
        <mxCell id="udMgwDhPtrYCHYkNvZCU-57" value="N" style="edgeStyle=orthogonalEdgeStyle;rounded=0;orthogonalLoop=1;jettySize=auto;html=1;exitX=1;exitY=0.5;exitDx=0;exitDy=0;entryX=1;entryY=0.5;entryDx=0;entryDy=0;" edge="1" parent="1" source="udMgwDhPtrYCHYkNvZCU-4" target="udMgwDhPtrYCHYkNvZCU-11">
          <mxGeometry relative="1" as="geometry">
            <Array as="points">
              <mxPoint x="170" y="215" />
              <mxPoint x="170" y="420" />
            </Array>
          </mxGeometry>
        </mxCell>
        <mxCell id="udMgwDhPtrYCHYkNvZCU-4" value="标志位为10?" style="rhombus;whiteSpace=wrap;html=1;rounded=0;" vertex="1" parent="1">
          <mxGeometry x="190" y="190" width="120" height="50" as="geometry" />
        </mxCell>
        <mxCell id="udMgwDhPtrYCHYkNvZCU-9" value="" style="edgeStyle=orthogonalEdgeStyle;rounded=0;orthogonalLoop=1;jettySize=auto;html=1;" edge="1" parent="1" source="udMgwDhPtrYCHYkNvZCU-6" target="udMgwDhPtrYCHYkNvZCU-8">
          <mxGeometry relative="1" as="geometry" />
        </mxCell>
        <mxCell id="udMgwDhPtrYCHYkNvZCU-6" value="初始化芯片" style="whiteSpace=wrap;html=1;rounded=0;" vertex="1" parent="1">
          <mxGeometry x="190" y="260" width="120" height="40" as="geometry" />
        </mxCell>
        <mxCell id="udMgwDhPtrYCHYkNvZCU-12" value="" style="edgeStyle=orthogonalEdgeStyle;rounded=0;orthogonalLoop=1;jettySize=auto;html=1;" edge="1" parent="1" source="udMgwDhPtrYCHYkNvZCU-8" target="udMgwDhPtrYCHYkNvZCU-11">
          <mxGeometry relative="1" as="geometry" />
        </mxCell>
        <mxCell id="udMgwDhPtrYCHYkNvZCU-8" value="延迟20ms" style="whiteSpace=wrap;html=1;rounded=0;" vertex="1" parent="1">
          <mxGeometry x="190" y="330" width="120" height="40" as="geometry" />
        </mxCell>
        <mxCell id="udMgwDhPtrYCHYkNvZCU-14" value="" style="edgeStyle=orthogonalEdgeStyle;rounded=0;orthogonalLoop=1;jettySize=auto;html=1;" edge="1" parent="1" source="udMgwDhPtrYCHYkNvZCU-11" target="udMgwDhPtrYCHYkNvZCU-13">
          <mxGeometry relative="1" as="geometry" />
        </mxCell>
        <mxCell id="udMgwDhPtrYCHYkNvZCU-11" value="开启写入使能(3次)" style="whiteSpace=wrap;html=1;rounded=0;" vertex="1" parent="1">
          <mxGeometry x="190" y="400" width="120" height="40" as="geometry" />
        </mxCell>
        <mxCell id="udMgwDhPtrYCHYkNvZCU-18" value="" style="edgeStyle=orthogonalEdgeStyle;rounded=0;orthogonalLoop=1;jettySize=auto;html=1;" edge="1" parent="1" source="udMgwDhPtrYCHYkNvZCU-13" target="udMgwDhPtrYCHYkNvZCU-17">
          <mxGeometry relative="1" as="geometry" />
        </mxCell>
        <mxCell id="udMgwDhPtrYCHYkNvZCU-13" value="引脚置高" style="whiteSpace=wrap;html=1;rounded=0;" vertex="1" parent="1">
          <mxGeometry x="190" y="470" width="120" height="40" as="geometry" />
        </mxCell>
        <mxCell id="udMgwDhPtrYCHYkNvZCU-20" value="" style="edgeStyle=orthogonalEdgeStyle;rounded=0;orthogonalLoop=1;jettySize=auto;html=1;" edge="1" parent="1" source="udMgwDhPtrYCHYkNvZCU-17" target="udMgwDhPtrYCHYkNvZCU-19">
          <mxGeometry relative="1" as="geometry" />
        </mxCell>
        <mxCell id="udMgwDhPtrYCHYkNvZCU-17" value="写入系统寄存器(40ms)" style="whiteSpace=wrap;html=1;rounded=0;" vertex="1" parent="1">
          <mxGeometry x="190" y="540" width="120" height="40" as="geometry" />
        </mxCell>
        <mxCell id="udMgwDhPtrYCHYkNvZCU-22" value="" style="edgeStyle=orthogonalEdgeStyle;rounded=0;orthogonalLoop=1;jettySize=auto;html=1;" edge="1" parent="1" source="udMgwDhPtrYCHYkNvZCU-19" target="udMgwDhPtrYCHYkNvZCU-21">
          <mxGeometry relative="1" as="geometry" />
        </mxCell>
        <mxCell id="udMgwDhPtrYCHYkNvZCU-19" value="延迟20ms" style="whiteSpace=wrap;html=1;rounded=0;" vertex="1" parent="1">
          <mxGeometry x="190" y="600" width="120" height="40" as="geometry" />
        </mxCell>
        <mxCell id="udMgwDhPtrYCHYkNvZCU-24" value="" style="edgeStyle=orthogonalEdgeStyle;rounded=0;orthogonalLoop=1;jettySize=auto;html=1;" edge="1" parent="1" source="udMgwDhPtrYCHYkNvZCU-21" target="udMgwDhPtrYCHYkNvZCU-23">
          <mxGeometry relative="1" as="geometry" />
        </mxCell>
        <mxCell id="udMgwDhPtrYCHYkNvZCU-21" value="写入控制寄存器1(40ms)" style="whiteSpace=wrap;html=1;rounded=0;" vertex="1" parent="1">
          <mxGeometry x="190" y="670" width="120" height="40" as="geometry" />
        </mxCell>
        <mxCell id="udMgwDhPtrYCHYkNvZCU-26" value="" style="edgeStyle=orthogonalEdgeStyle;rounded=0;orthogonalLoop=1;jettySize=auto;html=1;" edge="1" parent="1" source="udMgwDhPtrYCHYkNvZCU-23" target="udMgwDhPtrYCHYkNvZCU-25">
          <mxGeometry relative="1" as="geometry" />
        </mxCell>
        <mxCell id="udMgwDhPtrYCHYkNvZCU-23" value="延迟20ms" style="whiteSpace=wrap;html=1;rounded=0;" vertex="1" parent="1">
          <mxGeometry x="190" y="730" width="120" height="40" as="geometry" />
        </mxCell>
        <mxCell id="udMgwDhPtrYCHYkNvZCU-28" value="" style="edgeStyle=orthogonalEdgeStyle;rounded=0;orthogonalLoop=1;jettySize=auto;html=1;" edge="1" parent="1" source="udMgwDhPtrYCHYkNvZCU-25" target="udMgwDhPtrYCHYkNvZCU-27">
          <mxGeometry relative="1" as="geometry" />
        </mxCell>
        <mxCell id="udMgwDhPtrYCHYkNvZCU-25" value="写入控制寄存器2" style="whiteSpace=wrap;html=1;rounded=0;" vertex="1" parent="1">
          <mxGeometry x="190" y="790" width="120" height="40" as="geometry" />
        </mxCell>
        <mxCell id="udMgwDhPtrYCHYkNvZCU-30" value="" style="edgeStyle=orthogonalEdgeStyle;rounded=0;orthogonalLoop=1;jettySize=auto;html=1;" edge="1" parent="1" source="udMgwDhPtrYCHYkNvZCU-27" target="udMgwDhPtrYCHYkNvZCU-29">
          <mxGeometry relative="1" as="geometry" />
        </mxCell>
        <mxCell id="udMgwDhPtrYCHYkNvZCU-27" value="延迟20ms" style="whiteSpace=wrap;html=1;rounded=0;" vertex="1" parent="1">
          <mxGeometry x="190" y="850" width="120" height="40" as="geometry" />
        </mxCell>
        <mxCell id="udMgwDhPtrYCHYkNvZCU-32" value="" style="edgeStyle=orthogonalEdgeStyle;rounded=0;orthogonalLoop=1;jettySize=auto;html=1;" edge="1" parent="1" source="udMgwDhPtrYCHYkNvZCU-29" target="udMgwDhPtrYCHYkNvZCU-31">
          <mxGeometry relative="1" as="geometry" />
        </mxCell>
        <mxCell id="udMgwDhPtrYCHYkNvZCU-29" value="引脚置低" style="whiteSpace=wrap;html=1;rounded=0;" vertex="1" parent="1">
          <mxGeometry x="190" y="910" width="120" height="40" as="geometry" />
        </mxCell>
        <mxCell id="udMgwDhPtrYCHYkNvZCU-34" value="" style="edgeStyle=orthogonalEdgeStyle;rounded=0;orthogonalLoop=1;jettySize=auto;html=1;" edge="1" parent="1" source="udMgwDhPtrYCHYkNvZCU-31" target="udMgwDhPtrYCHYkNvZCU-33">
          <mxGeometry relative="1" as="geometry" />
        </mxCell>
        <mxCell id="udMgwDhPtrYCHYkNvZCU-31" value="关闭写入使能(3次)" style="whiteSpace=wrap;html=1;rounded=0;" vertex="1" parent="1">
          <mxGeometry x="190" y="970" width="120" height="40" as="geometry" />
        </mxCell>
        <mxCell id="udMgwDhPtrYCHYkNvZCU-36" value="" style="edgeStyle=orthogonalEdgeStyle;rounded=0;orthogonalLoop=1;jettySize=auto;html=1;" edge="1" parent="1" source="udMgwDhPtrYCHYkNvZCU-33" target="udMgwDhPtrYCHYkNvZCU-35">
          <mxGeometry relative="1" as="geometry" />
        </mxCell>
        <mxCell id="udMgwDhPtrYCHYkNvZCU-33" value="读取三个刚刚设置的寄存器" style="whiteSpace=wrap;html=1;rounded=0;" vertex="1" parent="1">
          <mxGeometry x="190" y="1030" width="120" height="40" as="geometry" />
        </mxCell>
        <mxCell id="udMgwDhPtrYCHYkNvZCU-38" value="" style="edgeStyle=orthogonalEdgeStyle;rounded=0;orthogonalLoop=1;jettySize=auto;html=1;" edge="1" parent="1" source="udMgwDhPtrYCHYkNvZCU-35" target="udMgwDhPtrYCHYkNvZCU-37">
          <mxGeometry relative="1" as="geometry" />
        </mxCell>
        <mxCell id="udMgwDhPtrYCHYkNvZCU-35" value="读取A通道系数和B通道系数" style="whiteSpace=wrap;html=1;rounded=0;" vertex="1" parent="1">
          <mxGeometry x="190" y="1090" width="120" height="40" as="geometry" />
        </mxCell>
        <mxCell id="udMgwDhPtrYCHYkNvZCU-40" value="N" style="edgeStyle=orthogonalEdgeStyle;rounded=0;orthogonalLoop=1;jettySize=auto;html=1;" edge="1" parent="1" source="udMgwDhPtrYCHYkNvZCU-37" target="udMgwDhPtrYCHYkNvZCU-39">
          <mxGeometry relative="1" as="geometry" />
        </mxCell>
        <mxCell id="udMgwDhPtrYCHYkNvZCU-48" value="Y" style="edgeStyle=orthogonalEdgeStyle;rounded=0;orthogonalLoop=1;jettySize=auto;html=1;" edge="1" parent="1" source="udMgwDhPtrYCHYkNvZCU-37" target="udMgwDhPtrYCHYkNvZCU-47">
          <mxGeometry relative="1" as="geometry" />
        </mxCell>
        <mxCell id="udMgwDhPtrYCHYkNvZCU-37" value="前5个参数有一个为空?" style="rhombus;whiteSpace=wrap;html=1;rounded=0;" vertex="1" parent="1">
          <mxGeometry x="190" y="1150" width="120" height="50" as="geometry" />
        </mxCell>
        <mxCell id="udMgwDhPtrYCHYkNvZCU-42" value="" style="edgeStyle=orthogonalEdgeStyle;rounded=0;orthogonalLoop=1;jettySize=auto;html=1;" edge="1" parent="1" source="udMgwDhPtrYCHYkNvZCU-39" target="udMgwDhPtrYCHYkNvZCU-41">
          <mxGeometry relative="1" as="geometry" />
        </mxCell>
        <mxCell id="udMgwDhPtrYCHYkNvZCU-39" value="将功率系数赋值" style="whiteSpace=wrap;html=1;rounded=0;" vertex="1" parent="1">
          <mxGeometry x="190" y="1220" width="120" height="40" as="geometry" />
        </mxCell>
        <mxCell id="udMgwDhPtrYCHYkNvZCU-44" value="Y" style="edgeStyle=orthogonalEdgeStyle;rounded=0;orthogonalLoop=1;jettySize=auto;html=1;" edge="1" parent="1" source="udMgwDhPtrYCHYkNvZCU-41" target="udMgwDhPtrYCHYkNvZCU-43">
          <mxGeometry relative="1" as="geometry" />
        </mxCell>
        <mxCell id="udMgwDhPtrYCHYkNvZCU-54" value="N" style="edgeStyle=orthogonalEdgeStyle;rounded=0;orthogonalLoop=1;jettySize=auto;html=1;exitX=1;exitY=0.5;exitDx=0;exitDy=0;entryX=0.5;entryY=1;entryDx=0;entryDy=0;" edge="1" parent="1" source="udMgwDhPtrYCHYkNvZCU-41" target="udMgwDhPtrYCHYkNvZCU-47">
          <mxGeometry relative="1" as="geometry" />
        </mxCell>
        <mxCell id="udMgwDhPtrYCHYkNvZCU-41" value="设置的三个寄存器读取正确?" style="rhombus;whiteSpace=wrap;html=1;rounded=0;" vertex="1" parent="1">
          <mxGeometry x="190" y="1290" width="120" height="80" as="geometry" />
        </mxCell>
        <mxCell id="udMgwDhPtrYCHYkNvZCU-46" value="" style="edgeStyle=orthogonalEdgeStyle;rounded=0;orthogonalLoop=1;jettySize=auto;html=1;" edge="1" parent="1" source="udMgwDhPtrYCHYkNvZCU-43" target="udMgwDhPtrYCHYkNvZCU-45">
          <mxGeometry relative="1" as="geometry" />
        </mxCell>
        <mxCell id="udMgwDhPtrYCHYkNvZCU-43" value="恢复标志位次数" style="whiteSpace=wrap;html=1;rounded=0;" vertex="1" parent="1">
          <mxGeometry x="190" y="1390" width="120" height="50" as="geometry" />
        </mxCell>
        <mxCell id="udMgwDhPtrYCHYkNvZCU-45" value="退出函数" style="whiteSpace=wrap;html=1;rounded=0;" vertex="1" parent="1">
          <mxGeometry x="190" y="1470" width="120" height="50" as="geometry" />
        </mxCell>
        <mxCell id="udMgwDhPtrYCHYkNvZCU-52" value="Y" style="edgeStyle=orthogonalEdgeStyle;rounded=0;orthogonalLoop=1;jettySize=auto;html=1;" edge="1" parent="1" source="udMgwDhPtrYCHYkNvZCU-47" target="udMgwDhPtrYCHYkNvZCU-51">
          <mxGeometry relative="1" as="geometry" />
        </mxCell>
        <mxCell id="udMgwDhPtrYCHYkNvZCU-56" value="" style="edgeStyle=orthogonalEdgeStyle;rounded=0;orthogonalLoop=1;jettySize=auto;html=1;" edge="1" parent="1" source="udMgwDhPtrYCHYkNvZCU-47" target="udMgwDhPtrYCHYkNvZCU-55">
          <mxGeometry relative="1" as="geometry" />
        </mxCell>
        <mxCell id="udMgwDhPtrYCHYkNvZCU-47" value="标志位参数置零?" style="rhombus;whiteSpace=wrap;html=1;rounded=0;" vertex="1" parent="1">
          <mxGeometry x="390" y="1150" width="120" height="50" as="geometry" />
        </mxCell>
        <mxCell id="udMgwDhPtrYCHYkNvZCU-53" style="edgeStyle=orthogonalEdgeStyle;rounded=0;orthogonalLoop=1;jettySize=auto;html=1;exitX=0.5;exitY=1;exitDx=0;exitDy=0;entryX=1;entryY=0.5;entryDx=0;entryDy=0;" edge="1" parent="1" source="udMgwDhPtrYCHYkNvZCU-51" target="udMgwDhPtrYCHYkNvZCU-43">
          <mxGeometry relative="1" as="geometry" />
        </mxCell>
        <mxCell id="udMgwDhPtrYCHYkNvZCU-51" value="判断功率初始化失败" style="whiteSpace=wrap;html=1;rounded=0;" vertex="1" parent="1">
          <mxGeometry x="560" y="1145" width="120" height="60" as="geometry" />
        </mxCell>
        <mxCell id="udMgwDhPtrYCHYkNvZCU-58" style="edgeStyle=orthogonalEdgeStyle;rounded=0;orthogonalLoop=1;jettySize=auto;html=1;exitX=0.5;exitY=0;exitDx=0;exitDy=0;entryX=1;entryY=0.5;entryDx=0;entryDy=0;" edge="1" parent="1" source="udMgwDhPtrYCHYkNvZCU-55" target="udMgwDhPtrYCHYkNvZCU-4">
          <mxGeometry relative="1" as="geometry" />
        </mxCell>
        <mxCell id="udMgwDhPtrYCHYkNvZCU-55" value="标志位次数减一" style="whiteSpace=wrap;html=1;rounded=0;" vertex="1" parent="1">
          <mxGeometry x="390" y="1015" width="120" height="60" as="geometry" />
        </mxCell>
        <mxCell id="udMgwDhPtrYCHYkNvZCU-59" value="功率初始化流程" style="text;html=1;strokeColor=none;fillColor=none;align=center;verticalAlign=middle;whiteSpace=wrap;rounded=0;" vertex="1" parent="1">
          <mxGeometry x="220" y="50" width="60" height="30" as="geometry" />
        </mxCell>
      </root>
    </mxGraphModel>
  </diagram>
</mxfile>
